<?xml version="1.0" ?><!DOCTYPE svg  PUBLIC '-//W3C//DTD SVG 1.1//EN'  'http://www.w3.org/Graphics/SVG/1.1/DTD/svg11.dtd'><svg enable-background="new 0 0 128 128" height="128px" id="Layer_1" version="1.1" viewBox="0 0 128 128" width="128px" xml:space="preserve" xmlns="http://www.w3.org/2000/svg" xmlns:xlink="http://www.w3.org/1999/xlink"><g><path d="M101.331,110.924c0,2.258-2.841,4.09-6.354,4.09   H46.279H33.846c-3.507,0-6.352-1.832-6.352-4.09V47.039c0-2.258,2.845-4.089,6.352-4.089h61.132c3.513,0,6.354,1.831,6.354,4.089   L101.331,110.924L101.331,110.924z" fill="none" stroke="#3262F9" stroke-miterlimit="10" stroke-width="2"/><path d="M106.715,22.096H77.912   c0-4.247-6.581-7.69-14.697-7.69c-8.119,0-14.697,3.443-14.697,7.69H19.713c-2.958,0-5.349,3.228-5.349,7.202   c0,3.973,2.391,7.202,5.349,7.202h87.002c2.953,0,5.35-3.229,5.35-7.202C112.063,25.323,109.668,22.096,106.715,22.096z" fill="none" stroke="#3262F9" stroke-miterlimit="10" stroke-width="2"/></g><path d="M46.104,50.152c2.953,0,5.344,1.334,5.344,2.979  v48.385c0,1.641-2.391,2.971-5.344,2.971l0,0c-2.956,0-5.349-1.33-5.349-2.971V53.131C40.755,51.486,43.147,50.152,46.104,50.152  L46.104,50.152z" fill="none" stroke="#3262F9" stroke-miterlimit="10" stroke-width="2"/><path d="M64.415,50.152c2.953,0,5.347,1.334,5.347,2.979  v48.385c0,1.641-2.394,2.971-5.347,2.971l0,0c-2.953,0-5.351-1.33-5.351-2.971V53.131C59.064,51.486,61.462,50.152,64.415,50.152  L64.415,50.152z" fill="none" stroke="#3262F9" stroke-miterlimit="10" stroke-width="2"/><path d="M81.742,50.152c2.953,0,5.344,1.334,5.344,2.979  v48.385c0,1.641-2.391,2.971-5.344,2.971l0,0c-2.955,0-5.35-1.33-5.35-2.971V53.131C76.395,51.486,78.787,50.152,81.742,50.152  L81.742,50.152z" fill="none" stroke="#3262F9" stroke-miterlimit="10" stroke-width="2"/></svg>